<?xml version="1.0" encoding="UTF-8" standalone="no"?>
<!-- Generator: Adobe Illustrator 16.0.0, SVG Export Plug-In . SVG Version: 6.00 Build 0)  -->

<svg
   xmlns:dc="http://purl.org/dc/elements/1.1/"
   xmlns:cc="http://creativecommons.org/ns#"
   xmlns:rdf="http://www.w3.org/1999/02/22-rdf-syntax-ns#"
   xmlns:svg="http://www.w3.org/2000/svg"
   xmlns="http://www.w3.org/2000/svg"
   xmlns:sodipodi="http://sodipodi.sourceforge.net/DTD/sodipodi-0.dtd"
   xmlns:inkscape="http://www.inkscape.org/namespaces/inkscape"
   version="1.1"
   x="0px"
   y="0px"
   width="256"
   height="256"
   viewBox="0 0 255.99999 255.99999"
   enable-background="new 0 0 1190.55 841.89"
   xml:space="preserve"
   id="svg2"
   inkscape:version="0.48.5 r10040"
   sodipodi:docname="radiator.svg"><metadata
     id="metadata155"><rdf:RDF><cc:Work
         rdf:about=""><dc:format>image/svg+xml</dc:format><dc:type
           rdf:resource="http://purl.org/dc/dcmitype/StillImage" /></cc:Work></rdf:RDF></metadata><defs
     id="defs153" /><sodipodi:namedview
     pagecolor="#ffffff"
     bordercolor="#666666"
     borderopacity="1"
     objecttolerance="10"
     gridtolerance="10"
     guidetolerance="10"
     inkscape:pageopacity="0"
     inkscape:pageshadow="2"
     inkscape:window-width="2880"
     inkscape:window-height="1752"
     id="namedview151"
     showgrid="false"
     fit-margin-top="0"
     fit-margin-left="0"
     fit-margin-right="0"
     fit-margin-bottom="0"
     inkscape:zoom="3.1714774"
     inkscape:cx="86.490276"
     inkscape:cy="147.14421"
     inkscape:window-x="0"
     inkscape:window-y="48"
     inkscape:window-maximized="1"
     inkscape:current-layer="svg2" /><g
     id="Couch"
     display="none"
     style="display:none"
     transform="translate(-744.96901,-163.99)"><g
       display="inline"
       id="g5"
       style="display:inline"><path
         d="m 797.5,402.5 v 10 h -75 v -10 h 75 M 800,400 h -80 v 15 h 80 v -15 l 0,0 z"
         id="path7"
         inkscape:connector-curvature="0" /><path
         d="m 727.5,392.5 v 7.5 h -5 v -7.5 h 5 M 730,390 h -10 v 12.5 h 10 V 390 l 0,0 z"
         id="path9"
         inkscape:connector-curvature="0" /><path
         d="m 797.5,392.5 v 7.5 h -5 v -7.5 h 5 M 800,390 h -10 v 12.5 h 10 V 390 l 0,0 z"
         id="path11"
         inkscape:connector-curvature="0" /><path
         d="m 793.75,380 v 9.984 h -1.25 -2.49 l -0.01,2.49 -0.031,7.486 -59.927,0.039 v -7.499 -2.473 l -2.473,-0.027 -1.34,-0.015 V 380 h 67.521 m 2.5,-2.5 h -72.521 v 14.958 l 3.812,0.042 v 10 l 64.917,-0.042 0.041,-9.974 h 3.75 V 377.5 l 10e-4,0 z"
         id="path13"
         inkscape:connector-curvature="0" /><rect
         x="759.375"
         y="378.68799"
         width="1.25"
         height="33.812"
         id="rect15" /><path
         d="m 728.75,413.75 v 5 h -1.25 v -5 h 1.25 M 730,412.5 h -3.75 V 420 H 730 v -7.5 l 0,0 z"
         id="path17"
         inkscape:connector-curvature="0" /><path
         d="m 792.5,413.75 v 5 h -1.25 v -5 h 1.25 m 1.25,-1.25 H 790 v 7.5 h 3.75 v -7.5 l 0,0 z"
         id="path19"
         inkscape:connector-curvature="0" /></g></g><g
     id="WeMo"
     display="none"
     style="display:none"
     transform="translate(-744.96901,-163.99)"><g
       display="inline"
       id="g22"
       style="display:inline"><path
         d="m 782.5,342.5 v 75 h -45.016 v -75 H 782.5 M 785,340 h -50.016 v 80 H 785 v -80 l 0,0 z"
         id="path24"
         inkscape:connector-curvature="0" /><path
         d="m 760,378.75 c 8.96,0 16.25,7.29 16.25,16.25 0,8.96 -7.29,16.25 -16.25,16.25 -8.96,0 -16.25,-7.29 -16.25,-16.25 0,-8.96 7.29,-16.25 16.25,-16.25 m 0,-1.25 c -9.665,0 -17.5,7.835 -17.5,17.5 0,9.665 7.835,17.5 17.5,17.5 9.665,0 17.5,-7.835 17.5,-17.5 0,-9.665 -7.835,-17.5 -17.5,-17.5 l 0,0 z"
         id="path26"
         inkscape:connector-curvature="0" /><circle
         cx="753.771"
         cy="395"
         r="2.5"
         id="circle28"
         sodipodi:cx="753.771"
         sodipodi:cy="395"
         sodipodi:rx="2.5"
         sodipodi:ry="2.5"
         d="m 756.271,395 c 0,1.38071 -1.11929,2.5 -2.5,2.5 -1.38072,0 -2.5,-1.11929 -2.5,-2.5 0,-1.38071 1.11928,-2.5 2.5,-2.5 1.38071,0 2.5,1.11929 2.5,2.5 z" /><circle
         cx="766.25"
         cy="395"
         r="2.5"
         id="circle30"
         sodipodi:cx="766.25"
         sodipodi:cy="395"
         sodipodi:rx="2.5"
         sodipodi:ry="2.5"
         d="m 768.75,395 c 0,1.38071 -1.11929,2.5 -2.5,2.5 -1.38071,0 -2.5,-1.11929 -2.5,-2.5 0,-1.38071 1.11929,-2.5 2.5,-2.5 1.38071,0 2.5,1.11929 2.5,2.5 z" /><g
         id="g32"><line
           x1="742.5"
           y1="355"
           x2="777.5"
           y2="355"
           id="line34" /><rect
           x="742.5"
           y="353.75"
           width="35"
           height="2.5"
           id="rect36" /></g><g
         id="g38"><line
           x1="742.5"
           y1="365"
           x2="777.5"
           y2="365"
           id="line40" /><rect
           x="742.5"
           y="363.75"
           width="35"
           height="2.5"
           id="rect42" /></g></g></g><g
     id="Deckenlampe"
     display="none"
     style="display:none"
     transform="translate(-744.96901,-163.99)"><g
       display="inline"
       id="g45"
       style="display:inline"><path
         d="m 767.994,367.5 8.89,40 h -53.768 l 8.89,-40 h 35.988 M 770,365 h -40 l -10,45 h 60 l -10,-45 0,0 z"
         id="path47"
         inkscape:connector-curvature="0" /><rect
         x="748.75"
         y="340.375"
         width="2.5"
         height="25.625"
         id="rect49" /><path
         d="m 741.376,409.978 17.518,0.142 c -0.113,4.732 -3.998,8.547 -8.757,8.547 -4.807,0 -8.722,-3.892 -8.761,-8.689 m -1.181,-1.26 c -0.046,0.39 -0.069,0.786 -0.069,1.188 0,5.528 4.481,10.01 10.011,10.01 5.528,0 10.01,-4.482 10.01,-10.01 0,-0.347 -0.018,-0.689 -0.053,-1.027 l -19.899,-0.161 0,0 z"
         id="path51"
         inkscape:connector-curvature="0" /><rect
         x="734.93799"
         y="340.021"
         width="29.917"
         height="1.25"
         id="rect53" /></g></g><g
     id="Lampe_2"
     display="none"
     style="display:none"
     transform="translate(-744.96901,-163.99)"><g
       display="inline"
       id="g56"
       style="display:inline"><rect
         x="740"
         y="417.48001"
         width="40.015999"
         height="2.5"
         id="rect58" /><rect
         x="759.45001"
         y="349.92899"
         transform="matrix(0.7075,0.7067,-0.7067,0.7075,473.2148,-440.9848)"
         width="19.788"
         height="2.5"
         id="rect60" /><rect
         x="739.74298"
         y="337.21301"
         transform="matrix(0.7065,0.7077,-0.7077,0.7065,472.9321,-418.4532)"
         width="2.4990001"
         height="47.542"
         id="rect62" /><rect
         x="716.12598"
         y="399.27399"
         transform="matrix(0.7063,0.7079,-0.7079,0.7063,501.3697,-407.5327)"
         width="51.497002"
         height="2.5"
         id="rect64" /><path
         d="m 781.766,374.917 6.512,0.011 c -0.33,1.493 -1.664,2.614 -3.254,2.614 -1.595,0 -2.932,-1.126 -3.258,-2.625 m -1.295,-1.252 c -0.021,0.178 -0.031,0.359 -0.031,0.543 0,2.532 2.051,4.584 4.584,4.584 2.531,0 4.582,-2.052 4.582,-4.584 0,-0.158 0.003,-0.373 -0.014,-0.527 l -9.121,-0.016 0,0 z"
         id="path66"
         inkscape:connector-curvature="0" /><path
         d="m 760.062,341.25 c 1.068,0 1.938,0.869 1.938,1.938 0,1.069 -0.869,1.938 -1.938,1.938 -1.069,0 -1.938,-0.869 -1.938,-1.938 0,-1.069 0.87,-1.938 1.938,-1.938 m 0,-1.25 c -1.761,0 -3.188,1.427 -3.188,3.188 0,1.761 1.427,3.188 3.188,3.188 1.761,0 3.188,-1.427 3.188,-3.188 0,-1.761 -1.427,-3.188 -3.188,-3.188 l 0,0 z"
         id="path68"
         inkscape:connector-curvature="0" /><path
         d="m 778.192,358.036 c 1.068,0 1.938,0.869 1.938,1.938 0,1.069 -0.869,1.938 -1.938,1.938 -1.069,0 -1.938,-0.869 -1.938,-1.938 0,-1.069 0.87,-1.938 1.938,-1.938 m 0,-1.25 c -1.761,0 -3.188,1.427 -3.188,3.188 0,1.761 1.427,3.188 3.188,3.188 1.761,0 3.188,-1.427 3.188,-3.188 0,-1.761 -1.427,-3.188 -3.188,-3.188 l 0,0 z"
         id="path70"
         inkscape:connector-curvature="0" /><path
         d="m 723.209,378.125 c 1.068,0 1.938,0.869 1.938,1.938 0,1.069 -0.87,1.937 -1.938,1.937 -1.068,0 -1.938,-0.869 -1.938,-1.938 0,-1.069 0.87,-1.937 1.938,-1.937 m 0,-1.25 c -1.761,0 -3.188,1.427 -3.188,3.188 0,1.761 1.427,3.188 3.188,3.188 1.761,0 3.188,-1.427 3.188,-3.188 0,-1.761 -1.427,-3.188 -3.188,-3.188 l 0,0 z"
         id="path72"
         inkscape:connector-curvature="0" /><path
         d="m 785,362.5 c 6.036,0 11.087,4.302 12.249,10 h -24.498 c 1.162,-5.698 6.213,-10 12.249,-10 m 0,-2.5 c -8.284,0 -15,6.716 -15,15 h 30 c 0,-8.284 -6.716,-15 -15,-15 l 0,0 z"
         id="path74"
         inkscape:connector-curvature="0" /></g></g><g
     id="Lampe_3"
     display="none"
     style="display:none"
     transform="translate(-744.96901,-163.99)"><g
       display="inline"
       id="g77"
       style="display:inline"><path
         d="m 751.847,390.008 16.322,0.028 8.461,27.464 H 743.4 l 8.447,-27.492 M 750,387.505 740.016,420 h 40 l -10,-32.461 -20.016,-0.034 0,0 z"
         id="path79"
         inkscape:connector-curvature="0" /><path
         d="m 732.516,342.5 54.985,0.015 0.014,45 -54.999,-0.015 v -45 m -2.5,-2.5 v 50 l 60,0.016 -0.016,-50 -59.984,-0.016 0,0 z"
         id="path81"
         inkscape:connector-curvature="0" /><rect
         x="739.375"
         y="350.08301"
         width="1.25"
         height="30"
         id="rect83" /><rect
         x="749.37598"
         y="350.08301"
         width="1.25"
         height="30"
         id="rect85" /><rect
         x="759.37701"
         y="350.08301"
         width="1.25"
         height="30"
         id="rect87" /><rect
         x="769.37799"
         y="350.08301"
         width="1.25"
         height="30"
         id="rect89" /><rect
         x="779.37903"
         y="350.08301"
         width="1.25"
         height="30"
         id="rect91" /></g></g><g
     id="Stehlampe"
     display="none"
     style="display:none"
     transform="translate(-744.96901,-163.99)"><g
       display="inline"
       id="g94"
       style="display:inline"><rect
         x="750"
         y="417.54199"
         width="40"
         height="2.5"
         id="rect96" /><rect
         x="779.375"
         y="341.405"
         width="1.25"
         height="14.954"
         id="rect98" /><polygon
         points="780.625,339.406 780.625,341.906 761.25,341.906 761.25,419.25 758.75,419.25 758.75,339.406 "
         id="polygon100" /><path
         d="m 779.999,356.722 6.99,7.012 h -14.003 l 7.013,-7.012 M 780,354.953 769.969,364.984 H 790 l -10,-10.031 0,0 z"
         id="path102"
         inkscape:connector-curvature="0" /><path
         d="m 778.136,365 3.905,0.007 c -0.33,0.75 -1.081,1.274 -1.951,1.274 -0.873,0 -1.625,-0.527 -1.954,-1.281 m -1.406,-1.252 c -0.015,0.131 -0.022,0.265 -0.022,0.401 0,1.868 1.514,3.382 3.382,3.382 1.868,0 3.382,-1.514 3.382,-3.382 0,-0.117 0.002,-0.276 -0.011,-0.389 l -6.731,-0.012 0,0 z"
         id="path104"
         inkscape:connector-curvature="0" /></g></g><g
     id="Thermometer"
     transform="matrix(3.1956235,0,0,3.1956235,-2300.5588,-1086.321)"><g
       id="g107"><path
         d="m 760.006,342.5 c 4.136,0 7.5,3.364 7.5,7.5 v 43.844 0.969 l 0.653,0.716 0.076,0.083 0.076,0.083 0.083,0.076 c 2.583,2.362 4.064,5.724 4.064,9.223 0,6.89 -5.605,12.495 -12.495,12.495 -6.89,0 -12.495,-5.605 -12.495,-12.495 0,-3.551 1.52,-6.947 4.169,-9.317 l 0.832,-0.745 10e-4,-1.117 0.036,-43.815 c 0,-4.136 3.364,-7.5 7.5,-7.5 m 0,-2.5 c -5.523,0 -10,4.477 -10,10 l -0.035,43.815 c -3.069,2.746 -5.002,6.737 -5.002,11.18 0,8.281 6.714,14.995 14.995,14.995 8.281,0 14.995,-6.713 14.995,-14.995 0,-4.383 -1.879,-8.326 -4.877,-11.068 l -0.076,-0.083 V 350 c 0,-5.523 -4.477,-10 -10,-10 l 0,0 z"
         id="path109"
         inkscape:connector-curvature="0" /><g
         id="g111"><circle
           cx="760"
           cy="405.125"
           r="5"
           id="circle113"
           sodipodi:cx="760"
           sodipodi:cy="405.125"
           sodipodi:rx="5"
           sodipodi:ry="5"
           d="m 765,405.125 c 0,2.76142 -2.23858,5 -5,5 -2.76142,0 -5,-2.23858 -5,-5 0,-2.76142 2.23858,-5 5,-5 2.76142,0 5,2.23858 5,5 z" /></g><rect
         x="758.75"
         y="350.04199"
         width="2.5"
         height="50.083"
         id="rect115" /><rect
         x="755"
         y="389.375"
         width="10"
         height="1.25"
         id="rect117" /><rect
         x="755"
         y="379.375"
         width="10"
         height="1.25"
         id="rect119" /><rect
         x="755"
         y="369.375"
         width="10"
         height="1.25"
         id="rect121" /><rect
         x="755"
         y="359.37399"
         width="10"
         height="1.25"
         id="rect123" /></g></g><g
     id="Schreibtisch"
     display="none"
     style="display:none"
     transform="translate(-744.96901,-163.99)"><g
       display="inline"
       id="g126"
       style="display:inline"><path
         d="m 797.5,382.514 v 1.236 h -75 v -1.236 h 75 m 2.5,-2.5 h -80 v 6.236 h 80 v -6.236 l 0,0 z"
         id="path128"
         inkscape:connector-curvature="0" /><path
         d="m 726.25,385.031 v 33.75 H 725 v -33.75 h 1.25 m 1.25,-1.25 h -3.75 v 36.25 h 3.75 v -36.25 l 0,0 z"
         id="path130"
         inkscape:connector-curvature="0" /><path
         d="m 795.041,385 v 33.75 h -1.25 V 385 h 1.25 m 1.25,-1.25 h -3.75 V 420 h 3.75 v -36.25 l 0,0 z"
         id="path132"
         inkscape:connector-curvature="0" /><path
         d="M 792.5,386.125 V 407.5 h -15 v -21.375 h 15 m 1.25,-1.25 h -17.5 v 23.875 h 17.5 v -23.875 l 0,0 z"
         id="path134"
         inkscape:connector-curvature="0" /><path
         d="m 788.75,378.75 v 1.354 h -7.5 v -1.354 h 7.5 M 790,377.5 h -10 v 3.854 h 10 V 377.5 l 0,0 z"
         id="path136"
         inkscape:connector-curvature="0" /><path
         d="m 728.761,371.26 v 8.938 h -1.26 v -8.938 h 1.26 m 1.25,-1.25 h -3.76 v 11.438 h 3.76 V 370.01 l 0,0 z"
         id="path138"
         inkscape:connector-curvature="0" /><path
         d="m 731.261,370.01 v 10.188 h -1.26 V 370.01 h 1.26 m 1.25,-1.25 h -3.76 v 12.688 h 3.76 V 368.76 l 0,0 z"
         id="path140"
         inkscape:connector-curvature="0" /><path
         d="m 733.761,373.76 v 6.438 h -1.26 v -6.438 h 1.26 m 1.25,-1.25 h -3.76 v 8.938 h 3.76 v -8.938 l 0,0 z"
         id="path142"
         inkscape:connector-curvature="0" /><rect
         x="780.01599"
         y="402.521"
         width="9.9849997"
         height="1.25"
         id="rect144" /><rect
         x="780.01599"
         y="396.302"
         width="9.9849997"
         height="1.25"
         id="rect146" /><rect
         x="780.01599"
         y="390.03699"
         width="9.9849997"
         height="1.25"
         id="rect148" /></g></g><g
     id="Guides_außen"
     transform="translate(-744.96901,-163.99)" /></svg>